<?xml version="1.0" encoding="UTF-8" standalone="no"?>
<svg
   xmlns:dc="http://purl.org/dc/elements/1.1/"
   xmlns:cc="http://creativecommons.org/ns#"
   xmlns:rdf="http://www.w3.org/1999/02/22-rdf-syntax-ns#"
   xmlns:svg="http://www.w3.org/2000/svg"
   xmlns="http://www.w3.org/2000/svg"
   xmlns:sodipodi="http://sodipodi.sourceforge.net/DTD/sodipodi-0.dtd"
   xmlns:inkscape="http://www.inkscape.org/namespaces/inkscape"
   width="48"
   height="48"
   viewBox="0 0 12.7 12.7"
   version="1.1"
   id="svg12"
   sodipodi:docname="redshift-status-off.svg"
   inkscape:version="0.92.4 (5da689c313, 2019-01-14)">
  <metadata
     id="metadata18">
    <rdf:RDF>
      <cc:Work
         rdf:about="">
        <dc:format>image/svg+xml</dc:format>
        <dc:type
           rdf:resource="http://purl.org/dc/dcmitype/StillImage" />
        <dc:title></dc:title>
      </cc:Work>
    </rdf:RDF>
  </metadata>
  <defs
     id="defs16" />
  <sodipodi:namedview
     pagecolor="#ffffff"
     bordercolor="#666666"
     borderopacity="1"
     objecttolerance="10"
     gridtolerance="10"
     guidetolerance="10"
     inkscape:pageopacity="0"
     inkscape:pageshadow="2"
     inkscape:window-width="1087"
     inkscape:window-height="480"
     id="namedview14"
     showgrid="false"
     inkscape:zoom="4.9166667"
     inkscape:cx="2.1355932"
     inkscape:cy="24"
     inkscape:window-x="0"
     inkscape:window-y="25"
     inkscape:window-maximized="0"
     inkscape:current-layer="svg12" />
  <path
     d="m 6.344,0.073 a 6.29,6.29 0 0 0 -6.29,6.29 6.29,6.29 0 0 0 6.29,6.288 6.29,6.29 0 0 0 6.29,-6.289 6.29,6.29 0 0 0 -6.29,-6.29 z M 6.326,1.009 A 5.407,5.407 0 0 1 11.733,6.416 5.407,5.407 0 0 1 6.326,11.823 5.407,5.407 0 0 1 0.92,6.416 5.407,5.407 0 0 1 6.326,1.01 Z"
     id="path2"
     inkscape:connector-curvature="0"
     style="fill:#1a1a1a" />
  <path
     d="M 4.73,2.18 C 4.19,2.75 4.19,3.28 4.72,3.84 5.16,4.3 5.13,4.68 4.73,5.07 M 6.34,1.85 C 5.78,2.44 5.78,3.02 6.34,3.61 6.82,4.12 6.78,4.58 6.34,5.02 M 7.95,2.18 C 7.41,2.75 7.41,3.28 7.94,3.84 8.38,4.3 8.35,4.68 7.95,5.07"
     id="path4"
     inkscape:connector-curvature="0"
     style="fill:none;stroke:#1a1a1a;stroke-width:0.22;stroke-linecap:round;stroke-linejoin:round" />
  <path
     d="M 3.428,5.354 H 8.527 L 8.216,8.242 C 8.121,9.128 7.371,9.797 6.48,9.797 H 5.475 C 4.584,9.797 3.834,9.128 3.739,8.242 Z"
     id="path6"
     inkscape:connector-curvature="0"
     style="opacity:0.75;fill:#008080;stroke:#1a1a1a;stroke-width:0.22" />
  <path
     d="M 3.879,5.922 C 4.581,6.184 5.329,6.178 5.982,5.935 6.69,5.67 7.391,5.685 8.067,5.922 M 3.366,10.232 C 4.202,10.662 7.753,10.662 8.589,10.232"
     id="path8"
     inkscape:connector-curvature="0"
     style="opacity:0.75;fill:none;stroke:#1a1a1a;stroke-width:0.22;stroke-linecap:round;stroke-linejoin:round" />
  <path
     d="M 3.428,5.354 H 8.527 L 8.216,8.242 C 8.121,9.128 7.371,9.797 6.48,9.797 H 5.475 C 4.584,9.797 3.834,9.128 3.739,8.242 Z M 8.445,6.137 H 9.027 C 9.746,6.137 10.246,6.715 10.094,7.417 9.951,8.076 9.353,8.54 8.562,8.462"
     id="path10"
     inkscape:connector-curvature="0"
     style="fill:none;stroke:#1a1a1a;stroke-width:0.22;stroke-linecap:round;stroke-linejoin:round" />
</svg>
